# xmcd
#
# Track frame offsets:
#	150
#	15442
#	32145
#	47380
#	66015
#	76937
#	96129
#	111400
#	121052
#	145237
#	157952
#	171637
#	190395
#	207690
#	223012
#	237975
#	255109
#	272795
#	289235
#	301832
#
# Disc length: 4393
#
# Revision: 1
# Processed by: cddbd v1.5.1PL0 Copyright (c) Steve Scherf et al.
# Submitted via: FreeRIP 2.60 
# Normalized: r0:TDELIM( - )
#
DISCID=1c112714
DTITLE=Various Artist - Best of the Green Mountain Blues - volume 3
DYEAR=1900
DGENRE=Blues
TTITLE0=Bloozotomy - Whoop d'doo!
TTITLE1=Seth Yacovone Blues Band - Yes
TTITLE2=Christine Adler - You Can't Do Me
TTITLE3=Chad Hosllister - Groove
TTITLE4=The Mighty Misfits - I Love Wakin' Up With You
TTITLE5=Nobby Reed Project - Sad Times
TTITLE6=Rebecca Harrell - Blow Top Blues
TTITLE7=The Steph Pappas Experience - I Been Sing'n 'n' Play'n Guitar In Texas
TTITLE8=Tammy Fletcher and The Diciples - Canyons
TTITLE9=The Dogcatchers - Duck Sauce
TTITLE10=Rick Palieri - Coffee On My Mind
TTITLE11=Christy Bluhm - Rock Steady Man
TTITLE12=Steve Boothby - Yardbird Blues
TTITLE13=Blue Fox and The Rockin' Daddys - Barroom Boogie
TTITLE14=Bad Neighbors - Jump For Joy
TTITLE15=Blues2Ya - Mr. One Eye
TTITLE16=Julie Tiller Band - Kundalini Hot
TTITLE17=The Baily Brothers - You Leav Me
TTITLE18=Keltones - Montgomery Blues
TTITLE19=Blues For Breakfast - Why Goodbye?
EXTD=Album proceeds go to camp Ta-Kum-Ta in Colchester, VT\nThis is a camp for children battleing cancer. 
EXTT0=
EXTT1=
EXTT2=
EXTT3=
EXTT4=
EXTT5=
EXTT6=
EXTT7=
EXTT8=
EXTT9=
EXTT10=
EXTT11=
EXTT12=
EXTT13=
EXTT14=
EXTT15=
EXTT16=
EXTT17=
EXTT18=
EXTT19=
PLAYORDER=
